<?xml version="1.0" encoding="UTF-8" standalone="no"?>
<!DOCTYPE svg PUBLIC "-//W3C//DTD SVG 1.1//EN" "http://www.w3.org/Graphics/SVG/1.1/DTD/svg11.dtd">
<svg width="100%" height="100%" viewBox="0 0 4961 3508" version="1.1" xmlns="http://www.w3.org/2000/svg" xmlns:xlink="http://www.w3.org/1999/xlink" xml:space="preserve" xmlns:serif="http://www.serif.com/" style="fill-rule:evenodd;clip-rule:evenodd;stroke-linejoin:round;stroke-miterlimit:2;">
    <g id="Logo-claro-HD.jpeg" serif:id="Logo claro HD.jpeg" transform="matrix(4.422045,0,0,4.422045,216.345804,243.932601)">
        <g transform="matrix(1.479389,0,0,1.349241,-266.629723,-57.0452)">
            <path d="M393.094,329.498C393.206,221.807 392.611,221.664 393.772,218.595C398.554,205.957 416.326,208.191 418.569,220.489C419.134,223.585 418.724,266.895 418.867,298.495C418.94,314.815 418.714,314.81 418.682,316.46C418.666,317.265 418.702,317.471 419.502,317.443C420.63,317.403 420.508,316.643 422.34,314.372C425.73,310.168 425.537,310.049 428.908,305.838C432.612,301.212 436.81,295.476 439.332,292.366C441.361,289.863 453.834,273.77 455.973,270.876C457.407,268.934 457.572,269.079 459.005,267.135C464.585,259.57 474.533,247.004 475.105,246.209C477.142,243.377 477.168,243.405 501.606,211.578C511.163,199.131 525.009,197.277 532.463,197.874C533.867,197.987 541.014,199.187 546.614,202.309C556.876,208.03 559.816,215.462 565.789,223.283C567.387,225.375 570.465,229.921 570.757,230.321C571.716,231.637 634.963,320.211 639.129,325.78C643.479,331.597 643.13,339.261 638.663,343.666C637.106,345.202 631.971,349.482 624.478,346.554C619.814,344.732 617.117,339.165 613.183,333.729C603.202,319.937 575.671,281.105 573.591,278.428C571.831,276.163 565.972,267.701 565.695,267.351C562.938,263.876 558.79,257.566 557.334,255.626C554.124,251.35 542.182,234.125 540.879,232.245C539.613,230.418 539.691,230.395 538.415,228.56C533.04,220.832 525.142,222.521 521.45,227.461C515.625,235.256 515.496,235.151 515,235.835C508.424,244.889 504.482,249.66 502.919,251.806C499.013,257.169 440.425,333.138 436.647,337.614C427.309,348.676 413.863,348.716 409.464,347.645C402.839,346.032 393.699,342.492 393.094,329.498Z" style="fill:rgb(35,42,50);"/>
        </g>
        <g transform="matrix(1.479389,0,0,1.349241,-268.588758,-58.247521)">
            <path d="M547.89,436.519C547.691,452.276 548.681,454.849 545.228,457.003C544.289,457.589 537.679,459.446 537.489,451.5C537.404,447.955 537.503,408.26 537.512,404.5C537.526,399.136 537.247,395.742 543.497,395.711C574.768,395.554 574.909,395.589 577.559,396.228C585.65,398.18 588.654,402.94 589.996,405.209C594.543,412.895 593.626,426.108 583.403,431.297C583.16,431.42 580.119,432.462 579.863,432.839C579.345,433.602 580.027,434.559 580.113,434.68C590.347,449.058 592.689,450.121 592.279,453.466C591.865,456.843 586.646,460.034 582.847,455.24C581.924,454.074 582.113,453.942 571.858,440.243C567.795,434.816 567.899,433.935 564.486,433.9C562.929,433.883 549.714,433.889 549.555,433.929C547.9,434.341 548.315,434.855 547.89,436.519Z" style="fill:rgb(34,41,47);"/>
        </g>
        <g transform="matrix(1.479389,0,0,1.349241,-268.588758,-58.247521)">
            <path d="M663.5,447.784C672.498,447.812 672.494,447.783 672.543,447.774C674.477,447.439 674.186,445.214 674.187,444.504C674.203,433.105 674.199,433.091 674.043,432.676C673.497,431.222 669.491,431.799 662.498,431.734C653.925,431.654 655.645,424.118 658.541,422.568C659.949,421.815 660.324,421.614 678.491,421.834C685.295,421.916 684.664,426.342 684.622,436.504C684.557,452.213 685.035,454.051 683.068,456.098C681.532,457.696 677.965,457.727 677.501,457.731C653.514,457.94 650.831,457.578 648.534,457.268C644.755,456.758 637.923,453.93 634.287,450.736C629.922,446.903 627.422,443.319 625.873,439.354C621.501,428.164 624.11,416.497 626.784,411.658C631.029,403.976 635.332,401.603 636.153,401.02C644.258,395.273 652.153,395.729 653.503,395.703C656.556,395.644 677.581,395.7 678.493,395.728C684.309,395.905 683.922,401.115 683.283,402.413C681.527,405.984 678.455,405.33 671.5,405.372C654.844,405.472 648.908,404.398 642.351,409.282C633.228,416.077 632.786,427.24 635.361,434.555C636.425,437.578 639.419,441.993 641.517,443.478C648.476,448.407 650.414,447.835 663.5,447.784Z" style="fill:rgb(35,42,48);"/>
        </g>
        <g transform="matrix(1.479389,0,0,1.349241,-268.588758,-58.247521)">
            <path d="M416.208,436.498C416.156,454.049 416.571,454.53 414.4,456.379C412.949,457.616 409.481,458.489 406.672,456.293C405.053,455.028 384.191,430.986 370.759,416.252C368.286,413.539 368.384,412.695 367.488,412.628C365.96,412.512 366.782,413.499 366.754,420.506C366.627,453.069 367.223,453.289 366,455.223C363.986,458.41 356.701,459.511 356.603,451.499C356.568,448.685 356.595,417.46 356.598,414.501C356.611,399.508 356.531,399.302 357.834,397.777C359.533,395.791 363.584,394.264 367.282,397.725C369.242,399.559 386.427,419.221 396.628,430.38C399.739,433.784 399.613,433.878 402.686,437.323C404.417,439.264 404.337,439.642 405.518,439.537C406.332,439.464 405.983,438.888 405.984,438.803C405.991,437.634 406.109,437.651 406.086,436.484C405.97,430.742 405.993,410.746 405.995,408.507C406.004,400.513 406.089,400.145 406.252,399.438C407.376,394.553 414.884,394.297 415.966,399.409C416.32,401.081 416.19,403.564 416.203,415.5C416.205,422.499 416.206,429.498 416.208,436.498Z" style="fill:rgb(34,41,47);"/>
        </g>
        <g transform="matrix(1.479389,0,0,1.349241,-268.588758,-58.247521)">
            <path d="M451.896,439.5C451.895,429.831 451.893,420.162 451.891,410.494C451.891,399.015 451.056,395.703 458.498,395.705C460.39,395.706 495.133,395.646 498.492,395.743C505.068,395.932 504.939,403.31 500.345,405.076C498.33,405.851 464.8,404.959 463.531,405.571C462.421,406.105 462.521,406.456 462.515,417.5C462.514,419.904 461.896,421.638 465.5,421.645C491.279,421.697 491.259,421.602 493.498,421.663C500.032,421.84 499.96,427.817 497.245,430.176C495.423,431.759 495.093,431.255 465.498,431.371C464.962,431.373 462.674,431.048 462.553,433.504C462.538,433.803 462.56,444.922 462.584,445.495C462.643,446.908 462.998,447.587 464.471,447.763C464.871,447.81 497.183,447.772 498.483,447.815C504.65,448.019 504.841,455.169 501.234,457.01C499.701,457.792 499.604,457.755 470.499,457.722C455.706,457.705 454.657,458.228 452.701,455.374C451.777,454.027 451.882,453.578 451.896,439.5Z" style="fill:rgb(34,41,48);"/>
        </g>
        <g transform="matrix(1.479389,0,0,1.349241,-268.588758,-58.247521)">
            <path d="M191.501,447.786C198.167,447.792 204.833,447.798 211.498,447.805C215.587,447.813 219.894,448.139 222.26,446.207C227.506,441.924 224.671,435.511 224.122,434.767C221.362,431.031 218.092,431.396 210.501,431.338C199.088,431.25 189.563,432.812 182.727,424.318C180.957,422.119 179.953,418.407 179.818,417.452C177.846,403.453 187.546,396.532 195.536,395.862C200.003,395.488 227.358,395.744 227.494,395.748C233.751,395.955 233.917,403.141 229.318,405.037C227.696,405.705 208.679,405.288 199.499,405.381C189.72,405.48 188.745,413.622 190.783,417.331C193.637,422.528 198.445,421.632 211.5,421.631C216.472,421.631 223.29,421.07 228.747,425.163C234.819,429.718 235.15,434.741 235.483,437.502C236.619,446.932 230.78,456.44 219.504,457.567C216.78,457.839 185.992,457.718 185.496,457.685C179.582,457.287 179.958,451.635 181.675,449.652C183.618,447.407 186.351,447.791 191.501,447.786Z" style="fill:rgb(34,41,48);"/>
        </g>
        <g transform="matrix(1.479389,0,0,1.349241,-268.588758,-58.247521)">
            <path d="M506.736,308.542C507.172,306.778 507.412,304.248 510.083,300.239C510.932,298.963 511.497,298.005 513.403,296.379C525.123,286.381 536.487,291.673 538.483,292.537C538.798,292.673 542.549,294.782 544.343,296.654C546.37,298.769 546.42,298.726 547.864,301.28C550.76,306.403 551.152,309.315 551.217,313.505C551.377,323.91 543.99,333.826 531.526,335.674C522.652,336.989 513.491,331.403 510.455,326.529C505.27,318.204 505.945,313.399 506.736,308.542Z" style="fill:rgb(28,191,224);"/>
        </g>
        <g transform="matrix(1.479389,0,0,1.349241,-268.588758,-58.247521)">
            <path d="M804.5,457.54C804.403,457.523 803.275,457.705 801.466,456.542C800.692,456.045 799.04,454.063 799.775,451.584C800.756,448.272 804.429,441.534 806.289,437.402C806.785,436.302 818.872,411.107 819.647,409.574C824.52,399.93 824.502,396.918 829.549,395.772C830.298,395.602 835.312,394.935 837.569,399.464C839.771,403.883 839.613,403.934 841.854,408.335C842.562,409.725 847.327,420.351 849.799,425.349C850.196,426.151 853.315,432.458 854.625,435.441C859.949,447.57 861.833,449.499 862.123,452.523C862.618,457.682 855.005,459.888 852.4,454.548C852.008,453.744 852.041,453.745 847.616,444.442C841.261,431.083 841.432,431.03 835.128,417.671C834.361,416.044 834.44,416.031 833.654,414.422C832.192,411.427 832.654,411.181 831.677,410.194C830.522,409.027 830.035,410.96 830.008,411.01C829.089,412.76 826.999,417.817 822.717,426.612C822.028,428.027 822.127,428.072 814.305,444.405C808.87,455.753 808.919,455.893 807.618,456.658C805.967,457.629 805.188,457.44 804.5,457.54Z" style="fill:rgb(30,193,224);"/>
        </g>
        <g transform="matrix(1.479389,0,0,1.349241,-268.588758,-58.247521)">
            <path d="M315.26,412.287C313.941,413.833 299.23,431.08 298.882,431.706C297.756,433.73 298.991,452.112 298.079,454.333C296.174,458.974 288.516,459.143 288.2,452.508C288.105,450.509 288.339,433.647 288.05,432.602C287.676,431.247 287.591,431.255 277.113,418.846C276.127,417.678 276.031,417.776 264.669,404.359C259.286,398.001 267.337,393.001 271.699,397.297C272.537,398.122 273.328,399.067 287.814,416.248C292.066,421.291 292.683,422.845 294.396,421.388C294.782,421.059 295.32,420.119 307.245,406.286C307.455,406.042 311.288,401.355 313.678,398.664C314.753,397.453 316.118,395.374 319.472,395.739C322.646,396.085 325.721,400.004 322.127,404.182C318.661,408.211 318.814,408.324 315.26,412.287Z" style="fill:rgb(35,41,48);"/>
        </g>
        <g transform="matrix(1.479389,0,0,1.349241,-268.588758,-58.247521)">
            <path d="M405.504,195.31C390.737,193.828 388.02,177.413 397.119,170.007C404.731,163.81 412.926,168.13 415.123,169.952C422.049,175.697 422.267,189.065 412.58,193.678C408.927,195.417 407.703,195.237 405.504,195.31Z" style="fill:rgb(35,43,50);"/>
        </g>
        <g transform="matrix(1.479389,0,0,1.349241,-268.588758,-58.247521)">
            <path d="M582.108,416.456C582.021,416.82 581.672,422.798 574.45,424.238C572.244,424.677 566.958,424.254 551.498,424.394C549.823,424.409 548.951,424.524 548.234,423.71C547.69,423.093 547.818,422.028 547.813,414.496C547.813,414.272 547.8,406.872 547.914,406.599C548.582,405.002 549.464,405.455 560.498,405.377C575.287,405.272 578.137,405.059 581.207,410.665C582.469,412.97 582.131,415.525 582.108,416.456Z" style="fill:rgb(250,251,251);"/>
        </g>
        <g transform="matrix(1.479389,0,0,1.349241,-268.588758,-58.247521)">
            <path d="M767.489,457.447C767.158,457.455 766.833,457.556 766.501,457.564C761.316,457.689 761.217,452.142 761.205,451.498C761.16,448.939 761.254,448.941 761.249,419.5C761.246,402.513 760.658,400.127 762.476,397.479C764.015,395.237 771.391,393.806 771.49,401.5C771.517,403.578 771.509,451.461 771.452,452.498C771.226,456.587 768.462,457.072 767.489,457.447Z" style="fill:rgb(28,195,228);"/>
        </g>
        <g transform="matrix(1.479389,0,0,1.349241,-268.588758,-58.247521)">
            <path d="M675.975,501.502C676.116,499.977 676.21,496.915 678.365,493.407C680.548,489.852 685.607,488.077 689.513,488.348C700.054,489.081 704.122,499.467 699.575,508.538C697.91,511.86 692.698,515.846 684.462,513.628C676.914,511.596 676.289,504.654 675.975,501.502Z" style="fill:rgb(30,193,223);"/>
        </g>
        <g transform="matrix(1.479389,0,0,1.349241,-268.588758,-58.247521)">
            <path d="M428.232,502.509C428.234,502.171 428.212,501.833 428.214,501.495C428.238,494.216 432.215,488.977 439.497,488.451C452.658,487.5 455.983,500.609 451.632,508.575C447.769,515.649 435.996,515.952 431.402,510.582C428.305,506.961 428.373,503.764 428.232,502.509Z" style="fill:rgb(32,193,223);"/>
        </g>
        <g transform="matrix(1.479389,0,0,1.349241,-268.588758,-58.247521)">
            <path d="M489.377,495.583C489.248,495.585 487.762,495.607 487.762,495.607C487.149,496.227 488.09,496.395 488.111,506.499C488.12,510.634 488.315,512.721 487.501,513.501C486.998,513.983 484.678,514.286 484.255,512.57C484.123,512.036 484.135,491.174 484.291,490.453C484.85,487.872 489.762,488.433 490.695,490.4C490.925,490.885 490.752,490.944 493.227,496.609C494.231,498.906 497.299,507.141 497.639,507.284C498.697,507.727 499.31,505.632 499.367,505.437C499.701,504.297 499.94,503.48 504.965,491.686C506,489.257 506.597,488.713 509.471,488.85C512.583,488.998 511.592,490.693 511.774,498.484C511.914,504.486 511.695,504.474 511.788,510.49C511.791,510.722 511.823,512.793 511.32,513.348C511.08,513.613 507.692,515.204 507.671,511.495C507.616,501.679 507.922,499.52 508.069,498.49C508.069,498.49 508.22,496.7 508.233,496.545C507.973,496.254 507.714,495.964 507.454,495.674C507.223,495.819 506.868,495.479 506.637,495.624C506.545,495.682 504.822,501.015 503.454,504.482C499.93,513.419 499.558,513.5 498.556,513.724C495.887,514.32 495.431,511.585 492.529,504.488C490.739,500.11 490.59,500.179 489.377,495.583Z" style="fill:rgb(30,193,224);"/>
        </g>
        <g transform="matrix(1.479389,0,0,1.349241,-268.588758,-58.247521)">
            <path d="M735.801,495.721C735.784,495.916 735.551,496.324 735.644,497.521C735.957,501.529 735.96,501.509 735.928,505.517C735.884,510.974 736.257,513.468 734.585,513.839C732.008,514.412 731.942,511.78 731.935,511.497C731.879,509.289 731.916,495.865 731.919,494.505C731.927,491.871 731.594,489.557 733.306,489.02C733.612,488.924 735.814,488.233 737.254,489.741C737.788,490.302 744.766,500.605 745.411,501.556C746.891,503.742 746.746,503.818 748.298,505.948C748.404,506.093 748.369,506.37 748.537,506.43C749.961,506.936 749.927,504.792 749.924,504.609C749.91,503.672 749.642,501.866 749.718,496.509C749.791,491.352 749.487,489.389 750.687,488.922C753.46,487.842 753.543,491.191 753.551,491.499C753.553,491.58 753.614,511.433 753.606,511.508C753.531,512.272 753.344,513.593 751.544,513.796C748.132,514.183 747.545,511.007 744.294,506.637C742.419,504.116 739.157,499.004 738.727,498.329C737.299,496.091 737.422,496.018 737.225,495.901C737.127,495.843 737.121,495.888 735.801,495.721Z" style="fill:rgb(34,193,223);"/>
        </g>
        <g transform="matrix(1.479389,0,0,1.349241,-268.588758,-58.247521)">
            <path d="M564.658,510.444C565.14,511.816 565.527,512.618 565.138,513.268C564.585,514.191 562.181,514.132 561.335,512.609C560.142,510.465 560.381,508 557.495,507.781C557.024,507.745 551.061,507.736 550.502,507.736C546.103,507.729 547.484,510.539 545.859,512.767C544.517,514.606 542.529,513.978 542.311,513.759C541.424,512.871 542.139,511.426 542.894,509.658C543.027,509.346 543.672,508.24 544.662,505.565C545.426,503.503 549.667,493.385 550.11,492.329C550.907,490.427 550.702,490.3 551.499,489.499C551.712,489.285 555.247,487.551 556.66,490.417C557.498,492.115 558.333,495.133 559.871,498.318C560.325,499.257 560.236,499.286 564.658,510.444Z" style="fill:rgb(34,194,225);"/>
        </g>
        <g transform="matrix(1.479389,0,0,1.349241,-268.588758,-58.247521)">
            <path d="M278.327,509.445C285.558,492.268 285.091,492.094 285.874,490.678C287.849,487.108 291.302,489.677 291.305,489.681C292.665,491.219 296.943,504.039 300.026,510.695C301.678,514.263 298.691,514.17 297.449,513.594C296.633,513.216 295.962,511.555 295.88,511.352C294.958,509.069 295.393,507.752 291.508,507.77C284.843,507.8 284.844,507.784 284.561,507.819C281.847,508.16 282.375,513.118 279.538,513.731C277.175,514.242 277.22,512.718 277.226,512.508C277.234,512.248 277.318,512.292 278.327,509.445Z" style="fill:rgb(32,194,225);"/>
        </g>
        <g transform="matrix(1.479389,0,0,1.349241,-268.588758,-58.247521)">
            <path d="M727.497,431.329C711.373,431.331 710.792,431.626 708.967,429.172C707.326,426.966 708.12,422.286 712.529,421.778C714.463,421.555 733.576,421.547 734.438,421.783C738.05,422.774 738.324,426.537 737.526,428.511C736.182,431.834 731.668,431.287 727.497,431.329Z" style="fill:rgb(27,192,224);"/>
        </g>
        <g transform="matrix(1.479389,0,0,1.349241,-268.588758,-58.247521)">
            <path d="M680.827,498.556C680.884,498.354 681.222,494.729 684.699,492.858C687.123,491.554 690.092,491.984 690.56,492.052C698.149,493.151 698.004,503.786 695.376,507.416C691.921,512.188 686.227,510.54 685.578,510.267C680.078,507.959 680.566,502.327 680.827,498.556Z" style="fill:rgb(248,252,251);"/>
        </g>
        <g transform="matrix(1.479389,0,0,1.349241,-268.588758,-58.247521)">
            <path d="M447.816,506.654C446.771,508.182 446.917,508.308 445.42,509.397C441.867,511.982 434.547,511.028 433.287,505.555C430.415,493.076 439.021,490.361 444.45,492.616C445.185,492.921 448.974,494.494 448.925,501.499C448.906,504.165 448.687,504.133 447.816,506.654Z" style="fill:rgb(249,252,251);"/>
        </g>
        <g transform="matrix(1.479389,0,0,1.349241,-268.588758,-58.247521)">
            <path d="M346.843,492.494C346.843,492.162 346.833,491.829 346.833,491.496C346.841,487.169 350.337,489.2 350.566,489.451C351.06,489.992 350.997,492.263 350.99,492.51C350.927,494.819 351.135,502.946 351.058,504.499C350.411,517.46 336.683,513.985 335.485,513.54C330.579,511.72 330.008,507.539 329.972,507.387C329.497,505.403 329.685,491.018 329.749,490.535C330.095,487.949 333.107,489.007 333.508,489.494C334.266,490.416 333.645,499.653 334.066,505.547C334.567,512.547 342.516,510.587 343.349,510.169C347.588,508.04 346.811,504.66 346.843,492.494Z" style="fill:rgb(30,191,224);"/>
        </g>
        <g transform="matrix(1.479389,0,0,1.349241,-268.588758,-58.247521)">
            <path d="M383.491,492.304C383.337,492.299 381.568,492.24 381.568,492.24C379.69,491.473 380.199,489.488 381.259,489.077C382.584,488.563 390.016,488.856 396.504,488.823C396.737,488.822 399.268,488.809 399.424,488.857C401.588,489.526 400.609,491.473 400.552,491.539C399.155,493.15 393.437,491.328 392.816,493.581C392.496,494.738 392.791,511.597 392.549,512.513C392.159,513.987 388.699,515.194 388.462,511.502C388.349,509.753 388.742,493.951 388.004,492.908C387.37,492.012 383.964,492.301 383.491,492.304Z" style="fill:rgb(33,191,223);"/>
        </g>
        <g transform="matrix(1.479389,0,0,1.349241,-268.588758,-58.247521)">
            <path d="M598.817,502.497C598.883,495.596 598.873,494.16 598.612,493.449C598.035,491.879 594.479,492.335 593.494,492.348C593.196,492.351 589.565,492.397 590.88,489.694C591.32,488.791 593.275,488.798 593.496,488.798C608.338,488.846 608.334,488.693 609.461,488.796C609.662,488.815 611.303,488.965 611.311,490.503C611.332,493.971 604.139,490.793 603.198,493.351C602.559,495.089 603.277,511.116 602.848,512.633C602.414,514.169 600.116,513.978 599.55,513.437C598.667,512.595 598.85,511.515 598.817,502.497Z" style="fill:rgb(36,189,220);"/>
        </g>
        <g transform="matrix(1.479389,0,0,1.349241,-268.588758,-58.247521)">
            <path d="M641.092,500.507C641.093,499.786 641.095,493.125 641.145,491.486C641.267,487.531 644.341,488.996 644.662,489.323C645.367,490.04 645.301,491.141 645.301,492.501C645.305,509.982 645.381,509.975 645.3,511.492C645.284,511.787 645.135,514.583 642.393,513.77C640.872,513.319 641.147,512.245 641.092,500.507Z" style="fill:rgb(32,192,226);"/>
        </g>
        <g transform="matrix(1.479389,0,0,1.349241,-268.588758,-58.247521)">
            <path d="M556.858,501.383C556.859,501.389 557.914,502.789 556.776,503.825C556.251,504.304 556.154,504.081 553.496,504.115C551.391,504.143 551.353,504.333 550.743,504.01C549.304,503.249 550.97,501.259 552.614,495.56C552.84,494.776 552.654,494.503 553.462,494.398C555.119,494.181 554.638,495.058 555.18,496.626C556.006,499.018 555.988,499.009 556.858,501.383Z" style="fill:rgb(237,250,250);"/>
        </g>
        <g transform="matrix(1.479389,0,0,1.349241,-268.588758,-58.247521)">
            <path d="M286.837,498.619C287.402,496.777 287.035,496.611 288.22,495.104C288.343,494.947 288.368,494.678 288.555,494.607C289.709,494.173 290.253,496.369 290.303,496.573C290.688,498.128 290.755,498.089 291.335,499.569C291.928,501.083 294.073,504.162 290.488,504.169C286.082,504.177 285.59,504.318 285.373,503.557C285.113,502.648 285.415,502.66 286.837,498.619Z" style="fill:rgb(237,250,250);"/>
        </g>
    </g>
</svg>
